<svg width="246" height="161" xmlns="http://www.w3.org/2000/svg" xmlns:xlink="http://www.w3.org/1999/xlink" overflow="hidden"><defs><clipPath id="clip0"><path d="M803 466 1049 466 1049 627 803 627Z" fill-rule="evenodd" clip-rule="evenodd"/></clipPath></defs><g clip-path="url(#clip0)" transform="translate(-803 -466)"><path d="M827.347 519.724C824.531 501.447 839.031 484.615 859.733 482.129 868.121 481.121 876.65 482.627 883.955 486.406 891.695 473.524 909.781 468.629 924.353 475.471 926.901 476.668 929.239 478.184 931.295 479.973 937.323 469.295 952.007 464.957 964.091 470.284 967.436 471.758 970.353 473.89 972.62 476.516 982.336 466.418 999.505 465.171 1010.97 473.73 1015.79 477.328 1019.03 482.289 1020.15 487.765 1036.07 491.6 1045.46 506.127 1041.13 520.212 1040.76 521.397 1040.31 522.557 1039.76 523.685 1052.53 538.361 1049.4 559.397 1032.78 570.669 1027.6 574.178 1021.49 576.45 1015.03 577.266 1014.89 593.055 1000.27 605.753 982.368 605.626 976.389 605.584 970.539 604.083 965.467 601.289 959.413 618.991 938.298 628.997 918.305 623.637 909.926 621.391 902.687 616.64 897.821 610.196 877.351 621.099 850.781 615.234 838.476 597.097 838.32 596.869 838.168 596.639 838.018 596.407 824.621 597.792 812.486 589.351 810.914 577.553 810.076 571.265 812.427 564.971 817.34 560.349 805.74 554.319 801.843 541.083 808.636 530.787 812.556 524.846 819.429 520.919 827.143 520.213Z" stroke="#2F528F" stroke-width="1.33333" stroke-miterlimit="8" fill="#A6A6A6" fill-rule="evenodd"/><path d="M831.79 562.634C826.837 562.976 821.886 561.966 817.599 559.738M844.31 594.332C842.318 595.032 840.231 595.498 838.101 595.718M897.807 609.563C896.31 607.579 895.055 605.459 894.067 603.24M966.985 593.794C966.764 596.147 966.264 598.473 965.491 600.733M996.686 550.921C1007.91 555.746 1015 565.835 1014.9 576.854M1039.65 523.3C1037.83 527.052 1035.05 530.381 1031.54 533.025M1020.19 487.22C1020.5 488.735 1020.64 490.273 1020.61 491.812M968.391 481.863C969.447 479.744 970.847 477.771 972.545 476.006M929.531 484.654C929.962 482.903 930.638 481.206 931.543 479.603M883.926 486.369C886.569 487.736 889.014 489.382 891.208 491.27M828.619 524.881C828.042 523.195 827.617 521.471 827.348 519.726" stroke="#2F528F" stroke-width="1.33333" stroke-miterlimit="8" fill="none" fill-rule="evenodd"/><path d="M940.321 516.406 962.046 495.5 960.316 523.315 983.046 510.773 972.425 526.95 1006.5 527.495 976.374 540.769 984.763 549.859 972.425 554.77 988.725 570.765 961.067 564.593 963.038 579.133 945.008 572.224 941.301 586.221 929.942 579.133 922.292 590.41 914.635 582.769 897.597 599.5 896.866 583.322 873.888 581.324 887.238 569.504 865.5 557.5 891.187 551.313 873.151 535.319 900.567 533.137 894.888 512.954 921.313 526.228 928.963 504.586Z" stroke="#2F528F" stroke-width="1.33333" stroke-miterlimit="8" fill="#FFC000" fill-rule="evenodd"/></g></svg>