<svg width="156" height="150" xmlns="http://www.w3.org/2000/svg" xmlns:xlink="http://www.w3.org/1999/xlink" overflow="hidden"><defs><clipPath id="clip0"><path d="M296 186 452 186 452 336 296 336Z" fill-rule="evenodd" clip-rule="evenodd"/></clipPath></defs><g clip-path="url(#clip0)" transform="translate(-296 -186)"><path d="M299.5 261.5 318.521 256.207 300.941 247.454 320.672 245.825 305.209 233.947 324.892 236.044 312.14 221.499 331.018 227.243 321.467 210.588 338.816 219.758 332.832 201.634 347.984 213.876 345.799 194.981 358.172 209.825 359.868 190.883 368.986 207.76 374.5 189.5 380.014 207.76 389.132 190.883 390.828 209.825 403.201 194.981 401.016 213.876 416.168 201.634 410.184 219.758 427.533 210.588 417.982 227.243 436.86 221.499 424.108 236.044 443.791 233.947 428.328 245.825 448.059 247.454 430.479 256.207 449.5 261.5 430.479 266.793 448.059 275.547 428.328 277.175 443.791 289.053 424.108 286.956 436.86 301.501 417.982 295.757 427.533 312.412 410.184 303.243 416.168 321.366 401.016 309.124 403.201 328.019 390.828 313.175 389.132 332.117 380.014 315.24 374.5 333.5 368.986 315.24 359.868 332.117 358.172 313.175 345.799 328.019 347.984 309.124 332.832 321.366 338.816 303.243 321.467 312.412 331.018 295.757 312.14 301.501 324.892 286.956 305.209 289.053 320.672 277.175 300.941 275.547 318.521 266.793Z" stroke="#2F528F" stroke-width="1.33333" stroke-miterlimit="8" fill="#548235" fill-rule="evenodd"/><path d="M381.5 249C381.5 244.858 384.858 241.5 389 241.5 393.142 241.5 396.5 244.858 396.5 249 396.5 253.142 393.142 256.5 389 256.5 384.858 256.5 381.5 253.142 381.5 249Z" stroke="#2F528F" stroke-width="1.33333" stroke-miterlimit="8" fill="#C00000" fill-rule="evenodd"/><path d="M360.5 273C360.5 268.858 363.858 265.5 368 265.5 372.142 265.5 375.5 268.858 375.5 273 375.5 277.142 372.142 280.5 368 280.5 363.858 280.5 360.5 277.142 360.5 273Z" stroke="#2F528F" stroke-width="1.33333" stroke-miterlimit="8" fill="#C00000" fill-rule="evenodd"/><path d="M374.5 297C374.5 292.858 377.858 289.5 382 289.5 386.142 289.5 389.5 292.858 389.5 297 389.5 301.142 386.142 304.5 382 304.5 377.858 304.5 374.5 301.142 374.5 297Z" stroke="#2F528F" stroke-width="1.33333" stroke-miterlimit="8" fill="#C00000" fill-rule="evenodd"/><path d="M344.5 232C344.5 227.858 347.858 224.5 352 224.5 356.142 224.5 359.5 227.858 359.5 232 359.5 236.142 356.142 239.5 352 239.5 347.858 239.5 344.5 236.142 344.5 232Z" stroke="#2F528F" stroke-width="1.33333" stroke-miterlimit="8" fill="#C00000" fill-rule="evenodd"/><path d="M397.5 276C397.5 271.858 400.858 268.5 405 268.5 409.142 268.5 412.5 271.858 412.5 276 412.5 280.142 409.142 283.5 405 283.5 400.858 283.5 397.5 280.142 397.5 276Z" stroke="#2F528F" stroke-width="1.33333" stroke-miterlimit="8" fill="#C00000" fill-rule="evenodd"/><path d="M409.5 247C409.5 242.858 412.858 239.5 417 239.5 421.142 239.5 424.5 242.858 424.5 247 424.5 251.142 421.142 254.5 417 254.5 412.858 254.5 409.5 251.142 409.5 247Z" stroke="#2F528F" stroke-width="1.33333" stroke-miterlimit="8" fill="#C00000" fill-rule="evenodd"/><path d="M338.5 263C338.5 258.858 341.858 255.5 346 255.5 350.142 255.5 353.5 258.858 353.5 263 353.5 267.142 350.142 270.5 346 270.5 341.858 270.5 338.5 267.142 338.5 263Z" stroke="#2F528F" stroke-width="1.33333" stroke-miterlimit="8" fill="#C00000" fill-rule="evenodd"/><path d="M374.5 223C374.5 218.858 377.858 215.5 382 215.5 386.142 215.5 389.5 218.858 389.5 223 389.5 227.142 386.142 230.5 382 230.5 377.858 230.5 374.5 227.142 374.5 223Z" stroke="#2F528F" stroke-width="1.33333" stroke-miterlimit="8" fill="#C00000" fill-rule="evenodd"/></g></svg>