<svg width="198" height="209" xmlns="http://www.w3.org/2000/svg" xmlns:xlink="http://www.w3.org/1999/xlink" overflow="hidden"><defs><clipPath id="clip0"><path d="M907 158 1105 158 1105 367 907 367Z" fill-rule="evenodd" clip-rule="evenodd"/></clipPath></defs><g clip-path="url(#clip0)" transform="translate(-907 -158)"><path d="M1005.5 218.602 1036 170 1032.99 214.622 1067.61 207.348 1053.86 231.297 1089.88 238.185 1061.28 257.777 1094 281.365 1054.97 278.449 1065.69 321.629 1031.89 291.144 1025.55 335.389 1003.3 295.15 986.53 351 980.22 300.948 956.022 317.624 963.438 286.787 918.106 292.234 947.5 268.67 917 242.191 954.916 233.828 920.032 189.231 976.918 222.959 985.44 189.231Z" stroke="#ED7D31" stroke-width="6" stroke-miterlimit="8" fill="#FFFF00" fill-rule="evenodd"/></g></svg>